<svg xmlns="http://www.w3.org/2000/svg" viewBox="0 0 3024 3024"><defs fill="#000000"><style>.cls-1,.cls-3,.cls-8{fill:#000000;}.cls-1,.cls-2,.cls-3,.cls-4,.cls-5,.cls-6,.cls-7{stroke:#000000;}.cls-1,.cls-2,.cls-3,.cls-4,.cls-6,.cls-7{stroke-miterlimit:10;}.cls-1,.cls-2,.cls-4,.cls-5{stroke-width:14px;}.cls-2,.cls-4,.cls-5,.cls-6{fill:none;}.cls-4,.cls-5{stroke-linecap:round;}.cls-5{stroke-linejoin:round;}.cls-7{fill:#fff;}</style></defs><title>Risorsa 3</title><g id="Livello_2" data-name="Livello 2"><g id="Livello_2-2" data-name="Livello 2"><path class="cls-1" d="M679.94,1655.54c20.24-48.25,140.1-337.77,140.1-337.77s119.85,24.9,133.86,12.45,14-121.41,24.91-143.21-34.25-17.12-34.25-17.12l-76.27,20.24s171.22-365.8,174.34-390.7-46.7-9.34-46.7-9.34-185.23,76.27-555.7,29.57c-37.36-4.67-163.44-21.79-95,32.69,17.12,14,84.06,98.06,116.74,211.69,6.23,23.35,18.68,90.29,45.14,40.48s37.36-143.21,37.36-143.21,56,23.35,256.84,17.12c10.89,4.67-80.94,233.49-80.94,233.49s-105.85,35.8-130.76,62.26c1.56,6.23-9.34,10.9,24.91,14,12.45,3.11,77.83,9.34,77.83,9.34L536.74,1661.77s-4.67,7.78,24.9,4.67S679.94,1655.54,679.94,1655.54Z" fill="#000000"/><path class="cls-2" d="M1772.59,875.94c84.28,84.09,125.27,162.31,98.47,204.66-42.76,67.55-241.81,18.26-444.59-110.09S1094,683.35,1136.72,615.8c25.53-40.34,106.83-39,211.37-4" fill="#000000"/><path class="cls-2" d="M1295.57,666.34l161.88-149.43s21.8-24.91,74.72-18.68,102.73,6.23,137-1.56,71.6,10.9,84,45.14,15.57,87.17,24.91,105.85,14,29.58,28,34.25c10.89,15.56-4.67,40.47-4.67,40.47L1747,960.53s-264.62,14-456.08-269.28C1286.23,675.68,1295.57,666.34,1295.57,666.34Z" fill="#000000"/><path class="cls-3" d="M1375,610.3l129.2,151,74.72,40.47,192.18,53.54L1747,960.53s-274,1.56-457.64-269.28C1298.68,671,1375,610.3,1375,610.3Z" fill="#000000"/><path class="cls-4" d="M1511.93,557.38s59.15,28,87.17-9.34" fill="#000000"/><path class="cls-4" d="M1659.81,552.71s-37.36,56-26.46,96.51,26.46,74.71,56,82.5c23.35-6.23,24.91,3.11,49.81-32.69" fill="#000000"/><polyline class="cls-5" points="2344.7 1441.51 2431.87 1307.65 2431.87 1533.35" fill="#000000"/><line class="cls-5" x1="2576.63" y1="1383.92" x2="2576.63" y2="1499.11" fill="#000000"/><path class="cls-5" d="M2576.63,1475.76s14,52.92-84.05,46.7" fill="#000000"/><circle class="cls-5" cx="2523.71" cy="1360.57" r="52.92" fill="#000000"/><path class="cls-5" d="M2699.6,1296.75h-79.39v88.73s87.17-59.15,105.85,9.34-9.34,101.17-43.58,104.29c-26.46-1.56-54.48-4.67-54.48-4.67" fill="#000000"/><polyline class="cls-5" points="2769.64 1363.68 2827.24 1299.87 2830.35 1302.98 2836.58 1511.56" fill="#000000"/><path class="cls-5" d="M528.18,2451.73C708.74,2308.53,1006.05,2224.47,1045,2212c96.51-43.59,345.56-118.3,410.94-141.65,289.52-93.39,463.86-87.17,479.42-87.17,144.76-10.89,314.43-51.37,350.23-62.26,70-29.58-1.56-63.82-1.56-63.82s-104.29-32.69-138.53-46.7c-91.84-66.93,15.56-118.3,59.15-144.76,442.07-171.22,607.06-107.4,607.06-107.4s-197.68,48.25-249.05,107.4c-24.9,34.25-56,60.71,1.56,85.61,29.57,4.67,252.16,32.69,252.16,32.69" fill="#000000"/><path class="cls-5" d="M2822.57,1787.07s60.71,10.9,74.71,26.47,35.81,48.25-3.11,110.51S2779,2036.13,2779,2036.13l-331.55,155.65-438.95,211.7L1803,2501.54s-115.18,54.48-267.73,182.12" fill="#000000"/><path class="cls-6" d="M3023.5,3023.5H.5V.5h3023Zm-632.25-907.25c.44-1.36.88-2.72,1.33-4.07,2.1-6.24,1.64-11.88-3.73-16.43a16.22,16.22,0,0,1-1.7-2,28.06,28.06,0,0,0,2.13-2.77c4-6.73,2.33-14-4.67-17.55-10-5.09-20.73-7-31.8-4.3a21.9,21.9,0,0,0-16.26,19.18,11,11,0,0,0,5.28,11c4.11,2.59,8.23,2.13,12.05-.73,1.57-1.17,2.94-2.61,4.29-3.83,4.52.47,8.79-.47,12.91.87-.94,4.37-1.78,8.23-2.8,13-2.11,2-4.85,4.54-7.52,7.14s-5.42,5.18-7.89,8a53,53,0,0,0-6.25,8.18c-3.57,6.1,1.64,14.18,8.14,14.9,4.41.49,7.68-1.28,10.66-4.39,7.16-7.45,14.49-14.73,21.75-22.08a30.2,30.2,0,0,1-1,5.06c-3.55,9.68-3.62,19.72-3.39,29.81a18.53,18.53,0,0,0,.41,4.29c1.11,4.2,3.69,7.09,8,8.1s8.26-.08,10.74-3.69a77.09,77.09,0,0,0,8-14.07c2.06-5,3.49-10.21,6.72-14.81,2.7-3.85,2.09-8.28-.94-12a84.23,84.23,0,0,0-6.34-7c-3.1-3.05-6.79-4.27-11.05-2.7C2396,2114.21,2393.63,2115.27,2391.25,2116.25Zm-220.63-30.32a32.25,32.25,0,0,0-.79-4.21c-3.39-10.26-12.78-12.29-19.75-4.16a42.47,42.47,0,0,0-9.33,17.27,13.09,13.09,0,0,0-.15,5.87,10.26,10.26,0,0,0,9,8.06c4.94.57,9.1-1.35,11.13-6.24,2.56-6.16,6.2-11.56,10.08-16.86a14.52,14.52,0,0,0,2.87,8.86,16.18,16.18,0,0,1,2.85,12.94c-1,6,2.92,10.8,8.58,12a10.14,10.14,0,0,0,12.17-7.09,97.55,97.55,0,0,0,3-17.74c.41-4.84-1.85-8.88-6-11.7-1.58-1.07-3-2.41-4.88-4,3-1.14,5.56-1.57,7.42-3,3.1-2.37,6.6-3.28,10.18-4.34,17.09-5.07,33.78-11.22,49.43-19.83a180.52,180.52,0,0,0,16.62-10.69,25.31,25.31,0,0,0,8.29-9.75c3.42-7.1,1.67-14.59-4.83-19a24.26,24.26,0,0,0-8.56-3.79,153.59,153.59,0,0,0-15.34-1.82c-3.39-.33-6.89.5-10.2-.82-.4-.84-.79-1.6-1.13-2.38-2.35-5.43-6.54-7.44-12.36-7.41a91.49,91.49,0,0,0-21.35,2.25c-21,5.12-35.05,17.65-40.85,38.76-.59,2.15-1.3,4.85-.5,6.66,1.64,3.73.3,6.61-1.09,9.8-2.32,5.33-1.73,10.58.65,15.82,2.06,4.55,6.07,6.64,10.31,8.44ZM1045,2399.53l-7.26,4.21c-5.83,3.38-10.86,7.66-14,13.71-3.4,6.59-6.46,13.35-10,20.72a26.32,26.32,0,0,0-3,1.65c-7.38,5.1-7.56,13.31-.39,18.53a41.61,41.61,0,0,0,5.8,3.71c6.34,3.19,12.73,5.5,19.29.27,1.29-1,3.2-1.26,4.6-2.2a20.36,20.36,0,0,0,5.21-4.34c4.41-6,9.68-11.32,13.13-18a6.57,6.57,0,0,1,2.06-2.7c4.84-2.84,7.4-8,11.53-11.38,7-5.74,4.12-18-2.82-21.31-1.86-.9-3.65-1.94-5.92-3.16,12.13-5.62,17.85-15.15,20-27.13.8-4.51,1.09-9.11,1.64-13.67.23-1.94.53-3.87.7-5.09,11.43-3.15,22.41-5.54,32.93-9.25,8.59-3,17.09-4.85,26.13-4.26,4,.26,8,.63,12,.94,10,.76,20.06,1.69,30.1,2.2a41.64,41.64,0,0,0,22.48-4.9c1.23-.66,2.67-1.54,3.93-1.43,4,.35,7.11-1.79,10.62-2.84s7.4-.61,11.1-1.07a21.38,21.38,0,0,0,4.93-1.5c15.85-6,19.43-23,10.64-35.48-5.83-8.29-13.52-14.69-24.18-16.64a173.9,173.9,0,0,0-37.78-2.35c-8.9.32-17.81.59-26.71.65-16.11.11-32.22-.07-48.23,2.09-9.7,1.31-19.32,3.05-28.38,6.89-11.66,4.94-23.7,8.77-35.66,12.86-12.58,4.31-25.11,8.21-38.56,8.1a24.75,24.75,0,0,0-4.27.57c-12.74,2.15-25.49,4.23-38.19,6.53-8.06,1.46-16.36,13.92-14.35,21.87,2.06,8.15,5.38,15.75,12.19,21.33,14.12,11.59,29.45,21,47,26.54a22.22,22.22,0,0,1,5.53,2.25A115.46,115.46,0,0,0,1045,2399.53ZM269.75,2851.11c2.06-2.5,2.84-3.62,3.79-4.58q7.59-7.67,15.24-15.27c30.26-29.93,60.73-59.66,89.36-91.2,18.59-20.48,36-41.88,50.18-65.71,13.05-21.91,22.81-45.13,27.2-70.38,4.14-23.79,4.06-47.51-2.32-71a97.24,97.24,0,0,0-5.17-14.59c-12.25-27-35.24-39.81-65.39-38.22a113.26,113.26,0,0,0-23.77,4c-20.71,5.63-39.77,14.9-57.94,26.1-11.28,6.95-22.08,14.61-31.64,23.83a111,111,0,0,0-9.75,10.91,15.52,15.52,0,0,0-3.34,12.15c.83,5.87,6.41,10.59,12.76,10.81,5.83.2,10.57-3.42,11-9.73.3-3.93,2-6.34,4.59-8.74a180.53,180.53,0,0,1,26.9-20.12c15.17-9.46,31-17.54,48.2-22.73,10.24-3.09,20.64-5.11,31.4-4.59,15.94.77,28,7.81,35.51,22.09a77.1,77.1,0,0,1,7.47,22.85c5.42,30.92,1.2,60.69-10.9,89.47-8.07,19.2-19.07,36.69-31.49,53.34-15.86,21.27-33.78,40.74-52.28,59.66-24.13,24.67-48.77,48.85-73,73.37-8.1,8.16-15.87,16.65-23.61,25.16a23.16,23.16,0,0,0-5.11,7.87,36.68,36.68,0,0,1-4.18,9.27c-2.51,3.75-1.93,7.73.64,11.3a10.2,10.2,0,0,0,10.57,4.28,13,13,0,0,0,3.31-.93c11.16-5.14,23.19-6.74,35.17-7.85a302.9,302.9,0,0,1,82.48,3.75c29,5.29,56.93,13.94,83.35,27.06A108.57,108.57,0,0,0,490.24,2914a135.11,135.11,0,0,0,46.93-4.87,60.93,60.93,0,0,0,23.52-12.29,37,37,0,0,0,12.19-19.39,23.18,23.18,0,0,0,.74-6A10.72,10.72,0,0,0,553.3,2867a21.9,21.9,0,0,0-1.61,4.91,15.6,15.6,0,0,1-7.52,10.1,46.77,46.77,0,0,1-10.8,5.22,111.68,111.68,0,0,1-19.3,4.26c-18.82,2.05-37.25,1-54.63-7.89-15.63-8-32.06-14.14-48.85-19.29-43.11-13.21-87-18.47-132-13.77C276.31,2850.79,274,2850.84,269.75,2851.11Zm572.08,23.23c1.63-3,2.94-5.52,4.36-8,11.29-19.7,22.75-39.32,33.89-59.11,17.08-30.32,33.32-61.08,46.57-93.31,7.55-18.36,14.31-37,17.29-56.76,2.17-14.4.39-28-6.18-41.07-11.45-22.65-28.21-40.4-49.7-53.78a82.22,82.22,0,0,0-27-11.08c-20.2-4.12-37.68.8-51.41,16.6a71.77,71.77,0,0,0-9.22,13.48c-7.09,13.38-10.7,27.87-12,42.88a32.42,32.42,0,0,0,1.21,11.06c1.61,6,5.81,9.8,11.82,11.44a10.68,10.68,0,0,0,12-4.66c2.64-4.08,2.75-8.46-.44-12-3-3.29-3.08-6.71-2.15-10.41,1.81-7.24,3.66-14.48,5.89-21.6a44.46,44.46,0,0,1,9.57-16.24q11.28-12.57,28-9.6a62.47,62.47,0,0,1,20.13,7.42c16.55,9.52,29.47,22.7,39.77,38.72,8.07,12.56,10.17,25.91,7.33,40.43-3.23,16.47-9,32.09-15.32,47.51a640.48,640.48,0,0,1-33.1,68.24c-16.78,30.15-34.07,60-51.09,90q-6.59,11.63-12.82,23.45a48.94,48.94,0,0,0-3.19,8c-1.5,4.71.37,8.5,3.89,11.49,3.76,3.18,8.06,4.58,12.74,2.05a80.37,80.37,0,0,0,7.2-4.73,56.73,56.73,0,0,1,25.47-9.77c7.6-1,15,0,22.25,1.57,9,1.92,17.79,4.59,26.65,7,10.25,2.82,20.51,5.43,31.16,6.49,19.88,2,38.33-1.85,55.15-12.75a477.58,477.58,0,0,0,42.37-31.16,21.61,21.61,0,0,0,3.64-3.64,10.69,10.69,0,0,0-13.91-15.65c-2.21,1.31-4.12,3.12-6.21,4.65-12.53,9.15-24.91,18.54-37.67,27.35-13.17,9.1-28.1,11.32-43.7,9.23a166,166,0,0,1-18.55-3.88c-8.07-2.05-16-4.54-24.08-6.68-9.74-2.59-19.56-4.89-29.73-4.57C856.15,2873.2,849.59,2873.82,841.83,2874.34Zm-74.42-100.58c5.24-4.4,5.38-10,4.41-15.91-1.17-7.09-2.08-14.22-3.18-21.32-3-19.05-7-37.84-13.64-56-5.67-15.52-13-30.11-24.55-42.16-17-17.7-37.68-23.45-61.41-17.86-16.72,3.93-29.38,14-39.31,27.7a120,120,0,0,0-14.61,27.28c-8.41,21.65-12.37,44.25-13.75,67.29a368,368,0,0,0,1.34,62,324.75,324.75,0,0,0,12.72,62.39,174.37,174.37,0,0,0,15.31,35.55c6,10.28,13.1,19.62,22.9,26.58,12.68,9,26.42,10.86,40.84,4.95a71.19,71.19,0,0,0,13.45-7.61c9.59-6.66,16.81-15.59,22.88-25.49,12.38-20.22,21.42-41.91,28.24-64.56C765.13,2816.39,769.39,2795.92,767.41,2773.76Zm1006.65-604.55c.56.74,1.09,1.4,1.59,2.09,3.29,4.55,7.83,5.5,13,4.52a34,34,0,0,0,5-1.17c6.76-2.4,13.43-5.06,20.24-7.3,7.25-2.4,10.44-7.6,11.21-14.79a40.91,40.91,0,0,1,1-6.73c3.63-12.87-2.6-25.64-15.4-29.51-9.86-3-19.9-5.28-30.49-4.82a416,416,0,0,0-53.07,6.29c-9.86,1.72-20,2.69-29.21,7.12-1.24.59-2.8.54-4.21.77-14.46,2.38-29,4.36-43.36,7.25-14.07,2.83-28.09,6.15-41.36,11.91-3.41,1.48-6.66,3-10.66,2.81a8.86,8.86,0,0,0-9,5.69c-2.25,5.94-3.5,12.16-1.13,18.49,3.5,9.35,8.85,17.48,16.72,23.67,6.09,4.79,12.64,9,18.83,13.68s11.92,5.29,17.94.07c.38-.33,1.09-.28,1.79-.43a88.14,88.14,0,0,0,23.94,6.44c5.24.62,9.68-.6,12.86-5.15a21,21,0,0,1,2.17-2.33,35,35,0,0,0,4.91,2.49c8.22,2.55,15.31-3.28,14.39-11.76-.12-1.14-.55-2.24-.71-3.37-1.18-8.67.35-17,2.58-25.31C1727.12,2165.22,1750.06,2168.71,1774.06,2169.21Zm-616,707.79c-2.6,1.81-5.57,1.19-8.37,1.46-11.73,1.13-23.47,2.15-35.19,3.44a24.74,24.74,0,0,0-8.2,2.39,10,10,0,0,0-5.79,9.84,9.85,9.85,0,0,0,5.8,9c5.6,2.53,11.67,4.05,17.5,1.35,4.61-2.14,9.34-2.78,14.17-3.12,26.69-1.87,53.37-3.73,80.07-5.36,22.11-1.34,44.23-2.34,66.35-3.51a19.64,19.64,0,0,0,4.27-.52,11.33,11.33,0,0,0,8-10.14,10.8,10.8,0,0,0-8.41-10.64,28.91,28.91,0,0,0-6.84-.38c-4.6.14-9.2.45-13.79.7l-79.27,4.34c-1.66.09-3.33,0-5.39,0-.48-2.62-1-4.82-1.25-7-.42-4-.58-8-1-12.05-2.12-22.62-4.34-45.23-6.41-67.86-2-21.77-4-43.53-5.71-65.33-1.12-14.33-2.17-28.69-2.4-43.06-.55-33.07-.57-66.16-.83-99.25a53.88,53.88,0,0,0-.32-7.74c-.92-5.86-4.9-9.7-10.14-10.17-5-.44-9.76,3-11.41,8.67-.88,3-1.3,6.18-1.91,9.29-1.75,9-3.2,18.12-5.31,27.06-4,17.1-9.17,33.86-17.3,49.55a99.78,99.78,0,0,1-15,22.06c-8.48,9.18-18.57,15.32-31.33,16.39a35.49,35.49,0,0,0-6.81,1,10.62,10.62,0,0,0-7.52,11.23,10.5,10.5,0,0,0,9.49,9.57,30.85,30.85,0,0,0,4.3,0c15-.49,27.94-6.09,39.4-15.47s19.47-21.05,26.32-33.82c1.45-2.71,2.52-5.67,5-8.89,1.65,3.76,1.21,6.87,1.35,9.85.74,16.67,1.06,33.36,2.21,50,1.49,21.52,3.56,43,5.51,64.48,2,22.34,4.22,44.66,6.33,67C1159.14,2859.88,1160,2868.43,1158.06,2877Zm341.55-531.1c-9.53,2.09-18.35,4.38-27.62,4.69-19.23.63-38.46,1.67-57.69,2.45-2.56.1-5.13-.45-7.71-.53-6-.17-12.08-.68-18.06-.22-6.55.51-13,1.94-19.54,3a11.34,11.34,0,0,0-3.25,1.05c-6.15,3.11-8.11,10.38-3.73,16,2.23,2.84,3.74,5.51,4.16,9.1.44,3.8,2.56,7,5.19,9.72a29.86,29.86,0,0,0,11.56,7.28c7.87,2.94,16.11,4.2,24.4,5a54.21,54.21,0,0,1,12.62,2.45,63.3,63.3,0,0,0,18.6,3.19c12.76.49,25.2-1.39,37.49-4.53,15.88-4.07,31.23-9.72,46.47-15.7,3.17-1.25,6.21-2.7,9.94-1.93a9.19,9.19,0,0,0,9.26-3.43c2.45-3.1,5.76-4.62,9.16-6.16,5.49-2.5,11-5,16.43-7.56,2.59-1.2,5.08-2.45,8.12-2.56,4.36-.17,7.45-2.78,9.6-6.44a23.29,23.29,0,0,0,3.09-16.56,52.79,52.79,0,0,0-14.75-27.72c-2-2-4.27-4-5.68-6.36-4.34-7.36-11.08-9.76-19-9.46a123.21,123.21,0,0,0-18,1.91,75.73,75.73,0,0,0-15.62,4.6c-6.53,2.79-10.39,7.94-10.55,15.4,0,1.7,0,3.61-.75,5C1500.92,2333.13,1500.21,2339.08,1499.61,2345.9ZM2076,2214.69a24.09,24.09,0,0,1,2.63,1.85c3.33,3,7.24,3.44,11.31,2.35,10-2.68,20-5.15,29.31-9.87a40.44,40.44,0,0,0,9.87-6.75c7.28-7.1,7.25-16.27.42-23.79a30.66,30.66,0,0,0-11.24-7.78c-4.68-1.9-6.06-4.89-6-10,.24-13.24-9.09-20.56-22.05-18.19-7.5,1.37-14,5-20.47,8.71-13,7.48-24.67,16.82-36.18,26.31-3.5,2.89-6.36,6.6-9.25,10.16a9.83,9.83,0,0,0-1.62,10.54,16.86,16.86,0,0,1,1.21,8.24c-.39,7.44,5,12.47,12.49,11.87a80,80,0,0,0,8.45-1.59,44.39,44.39,0,0,1,5.89-1.06C2059.07,2215.28,2067.39,2215,2076,2214.69ZM2468.7,2056c-.9-3.48-1.44-6.59-2.49-9.52-4.49-12.51-15.95-16.5-26.81-8.94a54.86,54.86,0,0,0-10.93,10.81,52.94,52.94,0,0,1-9.57,9.7,36.38,36.38,0,0,0-14.43,21.77,26.93,26.93,0,0,0-.35,11c.7,3.32,1.84,6.42,1.76,10a9.16,9.16,0,0,0,5.71,8.94c8.58,3.45,17.36,6.07,26.59,1.92a10.71,10.71,0,0,1,4.11-.88c17.15-.2,33.38-5,49.57-9.93a44,44,0,0,0,8.68-3.69c5.37-3,7.64-8.71,6.32-14.67-.55-2.48-.83-5-1.47-7.49-1.79-7-5-12.84-12.38-15.27a37.62,37.62,0,0,0-6.63-1.73C2480.73,2057.25,2475.05,2056.71,2468.7,2056Zm-1031,364.68c-.88-1.81-1.49-3.37-2.35-4.78-3.67-5.95-9.59-7.65-15.48-4-3.15,1.93-5.84,4.62-8.62,7.11-1.66,1.49-3.09,3.25-5.39,5.71-.68-3.75-1.3-6.5-1.66-9.28-.72-5.53-4.12-8.61-9.08-10.42-4.69-1.71-8.4,0-11.73,3.19-1.51,1.44-3,2.94-4.73,4.71-.56-2.13-.89-3.52-1.29-4.88-2.86-9.72-12.38-12.84-20.65-9.56a42.36,42.36,0,0,0-21.38,18,25.34,25.34,0,0,0-2.87,7.15,10.63,10.63,0,0,0,10.91,13.11,16.73,16.73,0,0,0,6.56-1.8c5.1-2.63,10-5.66,15-8.41,1-.57,2-2.35,3.56-.7-.93,1.51-1.81,3-2.75,4.43-3.68,5.67.36,15.08,9,15.68,1.71.12,3.45-.07,5.16.07,5.45.47,9.67-1.47,11.89-6.56a10,10,0,0,1,5.4-5.19c2-1,4-2.2,6-3.35.78,2.66,1.1,5.31,2.33,7.44a10.81,10.81,0,0,0,4.88,4.57,13.92,13.92,0,0,0,7.52.49c2.33-.49,4.41-2.19,6.69-3.4.63,1,1.12,1.62,1.54,2.34,5.44,9.35,13,10,19.76,1.88,2.38-2.85,5.19-5.34,7.69-8.1a37.7,37.7,0,0,0,5.36-6.67,10.68,10.68,0,0,0-15.78-13.43C1441.39,2417.26,1439.77,2418.9,1437.71,2420.69Zm562.2-202a41,41,0,0,0,2.84-3.7c4.58-7.84.26-16.21-8.72-16.78a30.36,30.36,0,0,0-7.74.32c-8.45,1.66-16.86,3.51-25.26,5.44a20.11,20.11,0,0,0-5.55,2.3,10.64,10.64,0,0,0,6.42,19.86,43.14,43.14,0,0,0,5.84-1.41c3.07-.75,6.13-1.54,9.22-2.22,2.81-.62,5.62-1.22,8.46-1.65s5.67-.64,10-1.11c-3,2.06-4.58,3.21-6.21,4.33a78.23,78.23,0,0,0-17.53,16.49c-3.39,4.34-6.31,9-7.39,14.46a13.2,13.2,0,0,0,.06,5.9,10.67,10.67,0,0,0,9.2,8,10.27,10.27,0,0,0,11-6.67,37.12,37.12,0,0,1,8.38-12.9c2.83-2.87,5.62-5.66,10.14-5.88,3.38-.17,5.77-2.4,7.45-5.26a12.78,12.78,0,0,0-4.7-17.26A48.92,48.92,0,0,0,1999.91,2218.66ZM1281,2405.2a10.14,10.14,0,0,0,4.22,9,67.09,67.09,0,0,0,5.93,3.47c3.23,1.82,6.59,2.17,9.82.2,3.53-2.15,7.45-2.85,11.39-3.62a100.86,100.86,0,0,0,23.57-8c4.52-2.13,8.2-5.63,7.25-10.57-1.23-6.47-1.32-14.1-9-17.43a7.26,7.26,0,0,0-1.66-.44c-9.67-1.63-19.32-2.63-29.06-.26C1289.26,2381,1281.33,2390.65,1281,2405.2Zm-358.63-47.88c-4.12,2.51-7.29,4.41-10.42,6.37a19.85,19.85,0,0,0-7.58,8,10.8,10.8,0,0,0,2.48,13.3c4,3.44,9.45,4.1,13.34.37,5.55-5.33,12.4-8.13,19-11.58a28.59,28.59,0,0,0,5.79-3.65,10.93,10.93,0,0,0,.2-16.64,40.93,40.93,0,0,0-4.53-3.26,65.08,65.08,0,0,0-.51-7.17,35.62,35.62,0,0,0-1.93-6.6c-2.13-5.45-6.52-8.19-12.24-7a33.51,33.51,0,0,0-10.28,4.13c-7.81,4.8-8,14.63-.57,20C916.91,2355,919.12,2355.7,922.41,2357.32Zm733.79-123.57a10.8,10.8,0,0,0-5.06-9.68c-2.35-1.56-15.33-4.35-18.15-3.72a20.23,20.23,0,0,0-5.6,2,39.39,39.39,0,0,0-12.6,11.5,16.61,16.61,0,0,0-3.6,9.49c-.06,2.83-.36,5.66-.62,8.49-.43,4.75,1.32,8.43,5.44,10.82A72.73,72.73,0,0,0,1623,2266c5.21,2.29,9.74,1.65,13-2.89,2.43-3.36,5.65-5.59,8.52-8.33a49.72,49.72,0,0,0,7.21-8.47A27,27,0,0,0,1656.2,2233.75ZM1000,2399.55a48.14,48.14,0,0,0-6.31,1,91.56,91.56,0,0,0-29.3,14.12,35.41,35.41,0,0,0-6.76,6.58c-3.13,4-4.33,8.6-2.55,13.74,1.72,4.95,5.18,8.09,9.78,8.44a10,10,0,0,0,10.7-7c1.38-4,4.06-6.11,7.33-7.9a77.27,77.27,0,0,1,20.83-7.89,10.59,10.59,0,0,0,8.2-11.59C1011.14,2403.49,1006.4,2399.51,1000,2399.55Zm611.64-173.29c-.67-1.73-1.07-4.15-2.4-5.83a39.93,39.93,0,0,1-4.62-8.07c-3.61-7.57-11.82-9-17.64-3a72.82,72.82,0,0,0-14.55,21.08c-1.49,3.42-2.54,7-1.94,10.83,1.15,7.36,7,11.39,14.23,9.53a16.94,16.94,0,0,1,6.68-.39c6.73.88,10.06-1.1,13-7.18,2-4.12,4-8.2,5.88-12.35A36.92,36.92,0,0,0,1611.61,2226.26ZM962.85,2405.48a67.28,67.28,0,0,0,7-1.65A10.73,10.73,0,0,0,977,2393.2a14.41,14.41,0,0,0-15.78-13.5,23.18,23.18,0,0,0-5.8,1.46c-10.9,4-19.83,11.25-29.17,17.82a5,5,0,0,0-.61.61c-3.65,4-4.12,9.1-1.21,13.37a10.69,10.69,0,0,0,13.64,3.72c1.55-.7,2.87-1.91,4.44-2.58a8,8,0,0,1,4-.77C953.89,2414.5,959.35,2411.74,962.85,2405.48ZM2048.7,2236.63c-.21-1.59-.3-3.32-.67-5a10.86,10.86,0,0,0-8.62-8.6c-4-1-7.45.6-10,3.61-2.37,2.82-5,5.76-6.25,9.12a155.1,155.1,0,0,0-6.13,21.41c-2,9.78.2,16.64,14.78,17.53a12.35,12.35,0,0,0,1.72,0,10.39,10.39,0,0,0,9.17-6.73,15.94,15.94,0,0,0,.86-3.31c1.42-7,2.84-14,4.18-21.06C2048.19,2241.33,2048.38,2239,2048.7,2236.63Zm-491.26-80.9c-2.4,3.46-4.85,6.28-6.5,9.51-2,3.91-1.14,7.89,1.76,11.16a10.06,10.06,0,0,0,10.83,3.31c2.45-.68,4.88-1.51,7.37-2,8.26-1.57,11.43-6.28,9.71-14.69-.16-.8-.2-1.64-.32-2.65a34.39,34.39,0,0,0,3.11-2.89c5.27-6.26,4.16-13.09-2.87-17.36a25.22,25.22,0,0,0-15.61-3.66c-9.38.8-13.11,10.31-9.28,16.12C1556.39,2153.74,1557,2155,1557.44,2155.73Zm563.23-69.52a10.29,10.29,0,0,0,9.55-6.2c2.62-5.33,6-8.22,12.63-7.88,8.45.44,13.19-8.09,9.5-15.69-3.35-6.94-9.4-9.67-17.16-7.36a39.33,39.33,0,0,0-23,18.21,18.46,18.46,0,0,0-2.32,8.12A10.41,10.41,0,0,0,2120.67,2086.21Zm-115,77.15c-2.87.17-5.76.12-8.59.55-4.61.69-9,2.2-12.41,5.52a10.59,10.59,0,0,0,2.42,17.42c2.7,1.44,5.71,1.9,8.32.57,5.83-3,11.7-2.23,17.69-1.11a19.29,19.29,0,0,0,4.28.36,9.76,9.76,0,0,0,6.86-3.18c5.22-5.48,3.62-13.82-3.4-17.3C2016.1,2163.83,2010.92,2163.53,2005.7,2163.36Zm413.46-16.6a30.81,30.81,0,0,0,.57,4.29,10.71,10.71,0,0,0,9.24,7.8,10.51,10.51,0,0,0,10.7-5.59c4.75-8.09,5.86-17.14,6.57-26.2.4-5.1-3.14-9.43-7.95-11-4.26-1.4-8.76.3-11.93,4.58a11.16,11.16,0,0,0-1.78,2.92C2422,2131.12,2419.68,2138.75,2419.16,2146.76ZM2131.94,2043c.86-.29,3-.5,4.53-1.6a17,17,0,0,1,12.13-3.08,9.54,9.54,0,0,0,7.17-2.28c3.28-2.82,5.05-6.33,4-10.63-1.14-4.49-4.06-7.63-8.76-8.4-7.49-1.22-14.82-.67-21.69,2.94a18.31,18.31,0,0,0-7.46,6.9C2117.71,2033.87,2122.7,2042.79,2131.94,2043ZM1565.2,2208.94a23.43,23.43,0,0,0,5-2.07,89.49,89.49,0,0,0,8-6.26,10.83,10.83,0,0,0,3.29-12.37,11.25,11.25,0,0,0-11.73-6.8,22.72,22.72,0,0,0-10.94,4.52,15.38,15.38,0,0,0-5.74,11.08C1552.54,2203.41,1557.53,2208.87,1565.2,2208.94Z" fill="#000000"/><path class="cls-3" d="M1045,2399.53a115.46,115.46,0,0,1-26.08-13.07,22.22,22.22,0,0,0-5.53-2.25c-17.55-5.53-32.88-14.95-47-26.54-6.81-5.58-10.13-13.18-12.19-21.33-2-8,6.29-20.41,14.35-21.87,12.7-2.3,25.45-4.38,38.19-6.53a24.75,24.75,0,0,1,4.27-.57c13.45.11,26-3.79,38.56-8.1,12-4.09,24-7.92,35.66-12.86,9.06-3.84,18.68-5.58,28.38-6.89,16-2.16,32.12-2,48.23-2.09,8.9-.06,17.81-.33,26.71-.65a173.9,173.9,0,0,1,37.78,2.35c10.66,1.95,18.35,8.35,24.18,16.64,8.79,12.52,5.21,29.47-10.64,35.48a21.38,21.38,0,0,1-4.93,1.5c-3.7.46-7.6,0-11.1,1.07s-6.64,3.19-10.62,2.84c-1.26-.11-2.7.77-3.93,1.43a41.64,41.64,0,0,1-22.48,4.9c-10-.51-20.07-1.44-30.1-2.2-4-.31-8-.68-12-.94-9-.59-17.54,1.23-26.13,4.26-10.52,3.71-21.5,6.1-32.93,9.25-.17,1.22-.47,3.15-.7,5.09-.55,4.56-.84,9.16-1.64,13.67-2.13,12-7.85,21.51-20,27.13,2.27,1.22,4.06,2.26,5.92,3.16,6.94,3.34,9.82,15.57,2.82,21.31-4.13,3.39-6.69,8.54-11.53,11.38a6.57,6.57,0,0,0-2.06,2.7c-3.45,6.67-8.72,12-13.13,18a20.36,20.36,0,0,1-5.21,4.34c-1.4.94-3.31,1.17-4.6,2.2-6.56,5.23-13,2.92-19.29-.27a41.61,41.61,0,0,1-5.8-3.71c-7.17-5.22-7-13.43.39-18.53a26.32,26.32,0,0,1,3-1.65c3.53-7.37,6.59-14.13,10-20.72,3.12-6,8.15-10.33,14-13.71Z" fill="#000000"/><path class="cls-3" d="M269.75,2851.11c4.28-.27,6.56-.32,8.83-.56,45-4.7,88.9.56,132,13.77,16.79,5.15,33.22,11.26,48.85,19.29,17.38,8.93,35.81,9.94,54.63,7.89a111.68,111.68,0,0,0,19.3-4.26,46.77,46.77,0,0,0,10.8-5.22,15.6,15.6,0,0,0,7.52-10.1,21.9,21.9,0,0,1,1.61-4.91,10.72,10.72,0,0,1,20.32,4.49,23.18,23.18,0,0,1-.74,6,37,37,0,0,1-12.19,19.39,60.93,60.93,0,0,1-23.52,12.29,135.11,135.11,0,0,1-46.93,4.87A108.57,108.57,0,0,1,449,2902.77c-26.42-13.12-54.38-21.77-83.35-27.06a302.9,302.9,0,0,0-82.48-3.75c-12,1.11-24,2.71-35.17,7.85a13,13,0,0,1-3.31.93,10.2,10.2,0,0,1-10.57-4.28c-2.57-3.57-3.15-7.55-.64-11.3a36.68,36.68,0,0,0,4.18-9.27,23.16,23.16,0,0,1,5.11-7.87c7.74-8.51,15.51-17,23.61-25.16,24.28-24.52,48.92-48.7,73-73.37,18.5-18.92,36.42-38.39,52.28-59.66,12.42-16.65,23.42-34.14,31.49-53.34,12.1-28.78,16.32-58.55,10.9-89.47a77.1,77.1,0,0,0-7.47-22.85c-7.54-14.28-19.57-21.32-35.51-22.09-10.76-.52-21.16,1.5-31.4,4.59-17.19,5.19-33,13.27-48.2,22.73a180.53,180.53,0,0,0-26.9,20.12c-2.61,2.4-4.29,4.81-4.59,8.74-.47,6.31-5.21,9.93-11,9.73-6.35-.22-11.93-4.94-12.76-10.81a15.52,15.52,0,0,1,3.34-12.15,111,111,0,0,1,9.75-10.91c9.56-9.22,20.36-16.88,31.64-23.83,18.17-11.2,37.23-20.47,57.94-26.1a113.26,113.26,0,0,1,23.77-4c30.15-1.59,53.14,11.27,65.39,38.22A97.24,97.24,0,0,1,453.2,2533c6.38,23.45,6.46,47.17,2.32,71-4.39,25.25-14.15,48.47-27.2,70.38-14.2,23.83-31.59,45.23-50.18,65.71-28.63,31.54-59.1,61.27-89.36,91.2q-7.66,7.59-15.24,15.27C272.59,2847.49,271.81,2848.61,269.75,2851.11Z" fill="#000000"/><path class="cls-3" d="M841.83,2874.34c7.76-.52,14.32-1.14,20.88-1.34,10.17-.32,20,2,29.73,4.57,8,2.14,16,4.63,24.08,6.68a166,166,0,0,0,18.55,3.88c15.6,2.09,30.53-.13,43.7-9.23,12.76-8.81,25.14-18.2,37.67-27.35,2.09-1.53,4-3.34,6.21-4.65a10.69,10.69,0,0,1,13.91,15.65,21.61,21.61,0,0,1-3.64,3.64,477.58,477.58,0,0,1-42.37,31.16c-16.82,10.9-35.27,14.73-55.15,12.75-10.65-1.06-20.91-3.67-31.16-6.49-8.86-2.44-17.68-5.11-26.65-7-7.27-1.56-14.65-2.59-22.25-1.57a56.73,56.73,0,0,0-25.47,9.77,80.37,80.37,0,0,1-7.2,4.73c-4.68,2.53-9,1.13-12.74-2.05-3.52-3-5.39-6.78-3.89-11.49a48.94,48.94,0,0,1,3.19-8q6.25-11.8,12.82-23.45c17-30,34.31-59.86,51.09-90a640.48,640.48,0,0,0,33.1-68.24c6.34-15.42,12.09-31,15.32-47.51,2.84-14.52.74-27.87-7.33-40.43-10.3-16-23.22-29.2-39.77-38.72a62.47,62.47,0,0,0-20.13-7.42q-16.67-3-28,9.6a44.46,44.46,0,0,0-9.57,16.24c-2.23,7.12-4.08,14.36-5.89,21.6-.93,3.7-.81,7.12,2.15,10.41,3.19,3.54,3.08,7.92.44,12a10.68,10.68,0,0,1-12,4.66c-6-1.64-10.21-5.46-11.82-11.44a32.42,32.42,0,0,1-1.21-11.06c1.3-15,4.91-29.5,12-42.88a71.77,71.77,0,0,1,9.22-13.48c13.73-15.8,31.21-20.72,51.41-16.6a82.22,82.22,0,0,1,27,11.08c21.49,13.38,38.25,31.13,49.7,53.78,6.57,13,8.35,26.67,6.18,41.07-3,19.8-9.74,38.4-17.29,56.76-13.25,32.23-29.49,63-46.57,93.31-11.14,19.79-22.6,39.41-33.89,59.11C844.77,2868.82,843.46,2871.34,841.83,2874.34Z" fill="#000000"/><path class="cls-3" d="M767.41,2773.76c2,22.16-2.28,42.63-8.36,62.83-6.82,22.65-15.86,44.34-28.24,64.56-6.07,9.9-13.29,18.83-22.88,25.49a71.19,71.19,0,0,1-13.45,7.61c-14.42,5.91-28.16,4.05-40.84-4.95-9.8-7-16.92-16.3-22.9-26.58a174.37,174.37,0,0,1-15.31-35.55,324.75,324.75,0,0,1-12.72-62.39,368,368,0,0,1-1.34-62c1.38-23,5.34-45.64,13.75-67.29a120,120,0,0,1,14.61-27.28c9.93-13.68,22.59-23.77,39.31-27.7,23.73-5.59,44.41.16,61.41,17.86C742,2650.42,749.33,2665,755,2680.53c6.63,18.16,10.68,36.95,13.64,56,1.1,7.1,2,14.23,3.18,21.32C772.79,2763.79,772.65,2769.36,767.41,2773.76Zm-145.18-5.49c.3,5.54.68,13.28,1.15,21a296.09,296.09,0,0,0,12.56,70.23c4.18,13.49,9.48,26.51,17.46,38.28a54.83,54.83,0,0,0,12.23,13.24c7.11,5.38,14.77,6.32,22.59,2.12a69.79,69.79,0,0,0,11.94-8.36c5.76-4.88,9.85-11.19,13.65-17.65a254.7,254.7,0,0,0,23.87-55.25c4.9-16,8.28-32.2,8.65-49.06.15-6.51.64-12.87,0-19.48-.79-7.59-1.07-15.46.74-23.13a8.47,8.47,0,0,0-.38-3.3c-1.23-6.49-2.36-13-3.78-19.45-3.6-16.31-8.26-32.28-16.16-47.13a73.5,73.5,0,0,0-13.1-18.08c-10.4-10.27-22.84-13.83-37.16-11.07-12.59,2.43-21.87,9.75-29.15,19.89-6.94,9.67-11.61,20.43-15.14,31.75C624.72,2716.7,622.72,2741.26,622.23,2768.27Z" fill="#000000"/><path class="cls-3" d="M1774.06,2169.21c-24-.5-46.94-4-70.34.62-2.23,8.29-3.76,16.64-2.58,25.31.16,1.13.59,2.23.71,3.37.92,8.48-6.17,14.31-14.39,11.76a35,35,0,0,1-4.91-2.49,21,21,0,0,0-2.17,2.33c-3.18,4.55-7.62,5.77-12.86,5.15a88.14,88.14,0,0,1-23.94-6.44c-.7.15-1.41.1-1.79.43-6,5.22-11.88,4.51-17.94-.07s-12.74-8.89-18.83-13.68c-7.87-6.19-13.22-14.32-16.72-23.67-2.37-6.33-1.12-12.55,1.13-18.49a8.86,8.86,0,0,1,9-5.69c4,.21,7.25-1.33,10.66-2.81,13.27-5.76,27.29-9.08,41.36-11.91,14.36-2.89,28.9-4.87,43.36-7.25,1.41-.23,3-.18,4.21-.77,9.24-4.43,19.35-5.4,29.21-7.12a416,416,0,0,1,53.07-6.29c10.59-.46,20.63,1.85,30.49,4.82,12.8,3.87,19,16.64,15.4,29.51a40.91,40.91,0,0,0-1,6.73c-.77,7.19-4,12.39-11.21,14.79-6.81,2.24-13.48,4.9-20.24,7.3a34,34,0,0,1-5,1.17c-5.19,1-9.73,0-13-4.52C1775.15,2170.61,1774.62,2170,1774.06,2169.21Z" fill="#000000"/><path class="cls-3" d="M1158.06,2877c2-8.57,1.08-17.12.28-25.67-2.11-22.33-4.31-44.65-6.33-67-2-21.48-4-43-5.51-64.48-1.15-16.63-1.47-33.32-2.21-50-.14-3,.3-6.09-1.35-9.85-2.5,3.22-3.57,6.18-5,8.89-6.85,12.77-15,24.55-26.32,33.82s-24.44,15-39.4,15.47a30.85,30.85,0,0,1-4.3,0,10.5,10.5,0,0,1-9.49-9.57,10.62,10.62,0,0,1,7.52-11.23,35.49,35.49,0,0,1,6.81-1c12.76-1.07,22.85-7.21,31.33-16.39a99.78,99.78,0,0,0,15-22.06c8.13-15.69,13.26-32.45,17.3-49.55,2.11-8.94,3.56-18,5.31-27.06.61-3.11,1-6.27,1.91-9.29,1.65-5.66,6.38-9.11,11.41-8.67,5.24.47,9.22,4.31,10.14,10.17a53.88,53.88,0,0,1,.32,7.74c.26,33.09.28,66.18.83,99.25.23,14.37,1.28,28.73,2.4,43.06,1.69,21.8,3.72,43.56,5.71,65.33,2.07,22.63,4.29,45.24,6.41,67.86.38,4,.54,8,1,12.05.23,2.23.77,4.43,1.25,7,2.06,0,3.73.08,5.39,0l79.27-4.34c4.59-.25,9.19-.56,13.79-.7a28.91,28.91,0,0,1,6.84.38,10.8,10.8,0,0,1,8.41,10.64,11.33,11.33,0,0,1-8,10.14,19.64,19.64,0,0,1-4.27.52c-22.12,1.17-44.24,2.17-66.35,3.51-26.7,1.63-53.38,3.49-80.07,5.36-4.83.34-9.56,1-14.17,3.12-5.83,2.7-11.9,1.18-17.5-1.35a9.85,9.85,0,0,1-5.8-9,10,10,0,0,1,5.79-9.84,24.74,24.74,0,0,1,8.2-2.39c11.72-1.29,23.46-2.31,35.19-3.44C1152.49,2878.19,1155.46,2878.81,1158.06,2877Z" fill="#000000"/><path class="cls-3" d="M1499.61,2345.9c.6-6.82,1.31-12.77,4.18-18.25.74-1.43.71-3.34.75-5,.16-7.46,4-12.61,10.55-15.4a75.73,75.73,0,0,1,15.62-4.6,123.21,123.21,0,0,1,18-1.91c7.9-.3,14.64,2.1,19,9.46,1.41,2.4,3.69,4.33,5.68,6.36a52.79,52.79,0,0,1,14.75,27.72,23.29,23.29,0,0,1-3.09,16.56c-2.15,3.66-5.24,6.27-9.6,6.44-3,.11-5.53,1.36-8.12,2.56-5.47,2.52-10.94,5.06-16.43,7.56-3.4,1.54-6.71,3.06-9.16,6.16a9.19,9.19,0,0,1-9.26,3.43c-3.73-.77-6.77.68-9.94,1.93-15.24,6-30.59,11.63-46.47,15.7-12.29,3.14-24.73,5-37.49,4.53a63.3,63.3,0,0,1-18.6-3.19,54.21,54.21,0,0,0-12.62-2.45c-8.29-.82-16.53-2.08-24.4-5a29.86,29.86,0,0,1-11.56-7.28c-2.63-2.77-4.75-5.92-5.19-9.72-.42-3.59-1.93-6.26-4.16-9.1-4.38-5.59-2.42-12.86,3.73-16a11.34,11.34,0,0,1,3.25-1.05c6.5-1.1,13-2.53,19.54-3,6-.46,12,.05,18.06.22,2.58.08,5.15.63,7.71.53,19.23-.78,38.46-1.82,57.69-2.45C1481.26,2350.28,1490.08,2348,1499.61,2345.9Z" fill="#000000"/><path class="cls-3" d="M2170.62,2085.92l5.44-8.09c-4.24-1.8-8.25-3.89-10.31-8.44-2.38-5.24-3-10.49-.65-15.82,1.39-3.19,2.73-6.07,1.09-9.8-.8-1.81-.09-4.51.5-6.66,5.8-21.11,19.88-33.64,40.85-38.76a91.49,91.49,0,0,1,21.35-2.25c5.82,0,10,2,12.36,7.41.34.78.73,1.54,1.13,2.38,3.31,1.32,6.81.49,10.2.82a153.59,153.59,0,0,1,15.34,1.82,24.26,24.26,0,0,1,8.56,3.79c6.5,4.46,8.25,12,4.83,19a25.31,25.31,0,0,1-8.29,9.75,180.52,180.52,0,0,1-16.62,10.69c-15.65,8.61-32.34,14.76-49.43,19.83-3.58,1.06-7.08,2-10.18,4.34-1.86,1.43-4.47,1.86-7.42,3,1.9,1.57,3.3,2.91,4.88,4,4.16,2.82,6.42,6.86,6,11.7a97.55,97.55,0,0,1-3,17.74,10.14,10.14,0,0,1-12.17,7.09c-5.66-1.23-9.56-6.06-8.58-12a16.18,16.18,0,0,0-2.85-12.94,14.52,14.52,0,0,1-2.87-8.86Z" fill="#000000"/><path class="cls-3" d="M2076,2214.69c-8.57.33-16.89.59-25.2,1a44.39,44.39,0,0,0-5.89,1.06,80,80,0,0,1-8.45,1.59c-7.48.6-12.88-4.43-12.49-11.87a16.86,16.86,0,0,0-1.21-8.24,9.83,9.83,0,0,1,1.62-10.54c2.89-3.56,5.75-7.27,9.25-10.16,11.51-9.49,23.18-18.83,36.18-26.31,6.46-3.71,13-7.34,20.47-8.71,13-2.37,22.29,4.95,22.05,18.19-.09,5.11,1.29,8.1,6,10a30.66,30.66,0,0,1,11.24,7.78c6.83,7.52,6.86,16.69-.42,23.79a40.44,40.44,0,0,1-9.87,6.75c-9.26,4.72-19.34,7.19-29.31,9.87-4.07,1.09-8,.63-11.31-2.35A24.09,24.09,0,0,0,2076,2214.69Z" fill="#000000"/><path class="cls-3" d="M2468.7,2056c6.35.7,12,1.24,17.68,2a37.62,37.62,0,0,1,6.63,1.73c7.37,2.43,10.59,8.31,12.38,15.27.64,2.46.92,5,1.47,7.49,1.32,6-1,11.65-6.32,14.67a44,44,0,0,1-8.68,3.69c-16.19,5-32.42,9.73-49.57,9.93a10.71,10.71,0,0,0-4.11.88c-9.23,4.15-18,1.53-26.59-1.92a9.16,9.16,0,0,1-5.71-8.94c.08-3.56-1.06-6.66-1.76-10a26.93,26.93,0,0,1,.35-11,36.38,36.38,0,0,1,14.43-21.77,52.94,52.94,0,0,0,9.57-9.7,54.86,54.86,0,0,1,10.93-10.81c10.86-7.56,22.32-3.57,26.81,8.94C2467.26,2049.42,2467.8,2052.53,2468.7,2056Z" fill="#000000"/><path class="cls-3" d="M1437.71,2420.69c2.06-1.79,3.68-3.43,5.53-4.74a10.68,10.68,0,0,1,15.78,13.43,37.7,37.7,0,0,1-5.36,6.67c-2.5,2.76-5.31,5.25-7.69,8.1-6.77,8.14-14.32,7.47-19.76-1.88-.42-.72-.91-1.39-1.54-2.34-2.28,1.21-4.36,2.91-6.69,3.4a13.92,13.92,0,0,1-7.52-.49,10.81,10.81,0,0,1-4.88-4.57c-1.23-2.13-1.55-4.78-2.33-7.44-2,1.15-4,2.37-6,3.35a10,10,0,0,0-5.4,5.19c-2.22,5.09-6.44,7-11.89,6.56-1.71-.14-3.45.05-5.16-.07-8.65-.6-12.69-10-9-15.68.94-1.44,1.82-2.92,2.75-4.43-1.54-1.65-2.53.13-3.56.7-5,2.75-9.92,5.78-15,8.41a16.73,16.73,0,0,1-6.56,1.8,10.63,10.63,0,0,1-10.91-13.11,25.34,25.34,0,0,1,2.87-7.15,42.36,42.36,0,0,1,21.38-18c8.27-3.28,17.79-.16,20.65,9.56.4,1.36.73,2.75,1.29,4.88,1.77-1.77,3.22-3.27,4.73-4.71,3.33-3.19,7-4.9,11.73-3.19,5,1.81,8.36,4.89,9.08,10.42.36,2.78,1,5.53,1.66,9.28,2.3-2.46,3.73-4.22,5.39-5.71,2.78-2.49,5.47-5.18,8.62-7.11,5.89-3.61,11.81-1.91,15.48,4C1436.22,2417.32,1436.83,2418.88,1437.71,2420.69Zm-62.14-.5c-1.53-1.39-2.23-.19-3,.52a5.45,5.45,0,0,0-.82,1.55l.81.59Z" fill="#000000"/><path class="cls-3" d="M2387.17,2120.35c-7.26,7.35-14.59,14.63-21.75,22.08-3,3.11-6.25,4.88-10.66,4.39-6.5-.72-11.71-8.8-8.14-14.9a53,53,0,0,1,6.25-8.18c2.47-2.79,5.21-5.36,7.89-8s5.41-5.14,7.52-7.14c1-4.76,1.86-8.62,2.8-13-4.12-1.34-8.39-.4-12.91-.87-1.35,1.22-2.72,2.66-4.29,3.83-3.82,2.86-7.94,3.32-12.05.73a11,11,0,0,1-5.28-11,21.9,21.9,0,0,1,16.26-19.18c11.07-2.69,21.8-.79,31.8,4.3,7,3.56,8.66,10.82,4.67,17.55a28.06,28.06,0,0,1-2.13,2.77,16.22,16.22,0,0,0,1.7,2c5.37,4.55,5.83,10.19,3.73,16.43-.45,1.35-.89,2.71-1.33,4.07a7.47,7.47,0,0,1-1,.72l-3.08,3.72Z" fill="#000000"/><path class="cls-3" d="M1999.91,2218.66a48.92,48.92,0,0,1,5.89,2.27,12.78,12.78,0,0,1,4.7,17.26c-1.68,2.86-4.07,5.09-7.45,5.26-4.52.22-7.31,3-10.14,5.88a37.12,37.12,0,0,0-8.38,12.9,10.27,10.27,0,0,1-11,6.67,10.67,10.67,0,0,1-9.2-8,13.2,13.2,0,0,1-.06-5.9c1.08-5.48,4-10.12,7.39-14.46a78.23,78.23,0,0,1,17.53-16.49c1.63-1.12,3.25-2.27,6.21-4.33-4.36.47-7.21.68-10,1.11s-5.65,1-8.46,1.65c-3.09.68-6.15,1.47-9.22,2.22a43.14,43.14,0,0,1-5.84,1.41,10.64,10.64,0,0,1-6.42-19.86,20.11,20.11,0,0,1,5.55-2.3c8.4-1.93,16.81-3.78,25.26-5.44a30.36,30.36,0,0,1,7.74-.32c9,.57,13.3,8.94,8.72,16.78A41,41,0,0,1,1999.91,2218.66Z" fill="#000000"/><path class="cls-3" d="M1281,2405.2c.29-14.55,8.22-24.22,22.44-27.69,9.74-2.37,19.39-1.37,29.06.26a7.26,7.26,0,0,1,1.66.44c7.7,3.33,7.79,11,9,17.43,1,4.94-2.73,8.44-7.25,10.57a100.86,100.86,0,0,1-23.57,8c-3.94.77-7.86,1.47-11.39,3.62-3.23,2-6.59,1.62-9.82-.2a67.09,67.09,0,0,1-5.93-3.47A10.14,10.14,0,0,1,1281,2405.2Z" fill="#000000"/><path class="cls-3" d="M922.41,2357.32c-3.29-1.62-5.5-2.34-7.28-3.64-7.44-5.41-7.24-15.24.57-20a33.51,33.51,0,0,1,10.28-4.13c5.72-1.22,10.11,1.52,12.24,7a35.62,35.62,0,0,1,1.93,6.6,65.08,65.08,0,0,1,.51,7.17,40.93,40.93,0,0,1,4.53,3.26,10.93,10.93,0,0,1-.2,16.64,28.59,28.59,0,0,1-5.79,3.65c-6.57,3.45-13.42,6.25-19,11.58-3.89,3.73-9.32,3.07-13.34-.37a10.8,10.8,0,0,1-2.48-13.3,19.85,19.85,0,0,1,7.58-8C915.12,2361.73,918.29,2359.83,922.41,2357.32Z" fill="#000000"/><path class="cls-3" d="M1656.2,2233.75a27,27,0,0,1-4.5,12.57,49.72,49.72,0,0,1-7.21,8.47c-2.87,2.74-6.09,5-8.52,8.33-3.28,4.54-7.81,5.18-13,2.89a72.73,72.73,0,0,1-6.94-3.36c-4.12-2.39-5.87-6.07-5.44-10.82.26-2.83.56-5.66.62-8.49a16.61,16.61,0,0,1,3.6-9.49,39.39,39.39,0,0,1,12.6-11.5,20.23,20.23,0,0,1,5.6-2c2.82-.63,15.8,2.16,18.15,3.72A10.8,10.8,0,0,1,1656.2,2233.75Z" fill="#000000"/><path class="cls-3" d="M2387.17,2120.35l0,.34,3.08-3.72a7.47,7.47,0,0,0,1-.72c2.38-1,4.74-2,7.16-2.94,4.26-1.57,8-.35,11.05,2.7a84.23,84.23,0,0,1,6.34,7c3,3.74,3.64,8.17.94,12-3.23,4.6-4.66,9.78-6.72,14.81a77.09,77.09,0,0,1-8,14.07c-2.48,3.61-6.41,4.7-10.74,3.69s-6.93-3.9-8-8.1a18.53,18.53,0,0,1-.41-4.29c-.23-10.09-.16-20.13,3.39-29.81A30.2,30.2,0,0,0,2387.17,2120.35Z" fill="#000000"/><path class="cls-3" d="M1000,2399.55c6.43,0,11.17,3.94,11.92,9.57a10.59,10.59,0,0,1-8.2,11.59,77.27,77.27,0,0,0-20.83,7.89c-3.27,1.79-6,3.86-7.33,7.9a10,10,0,0,1-10.7,7c-4.6-.35-8.06-3.49-9.78-8.44-1.78-5.14-.58-9.71,2.55-13.74a35.41,35.41,0,0,1,6.76-6.58,91.56,91.56,0,0,1,29.3-14.12A48.14,48.14,0,0,1,1000,2399.55Z" fill="#000000"/><path class="cls-3" d="M1611.61,2226.26a36.92,36.92,0,0,1-1.4,4.66c-1.89,4.15-3.92,8.23-5.88,12.35-2.9,6.08-6.23,8.06-13,7.18a16.94,16.94,0,0,0-6.68.39c-7.28,1.86-13.08-2.17-14.23-9.53-.6-3.83.45-7.41,1.94-10.83A72.82,72.82,0,0,1,1587,2209.4c5.82-6.06,14-4.61,17.64,3a39.93,39.93,0,0,0,4.62,8.07C1610.54,2222.11,1610.94,2224.53,1611.61,2226.26Z" fill="#000000"/><path class="cls-3" d="M962.85,2405.48c-3.5,6.26-9,9-16.36,7.85a8,8,0,0,0-4,.77c-1.57.67-2.89,1.88-4.44,2.58a10.69,10.69,0,0,1-13.64-3.72c-2.91-4.27-2.44-9.37,1.21-13.37a5,5,0,0,1,.61-.61c9.34-6.57,18.27-13.83,29.17-17.82a23.18,23.18,0,0,1,5.8-1.46A14.41,14.41,0,0,1,977,2393.2a10.73,10.73,0,0,1-7.13,10.63A67.28,67.28,0,0,1,962.85,2405.48Z" fill="#000000"/><path class="cls-3" d="M2048.7,2236.63c-.32,2.41-.51,4.7-.94,6.95-1.34,7-2.76,14-4.18,21.06a15.94,15.94,0,0,1-.86,3.31,10.39,10.39,0,0,1-9.17,6.73,12.35,12.35,0,0,1-1.72,0c-14.58-.89-16.81-7.75-14.78-17.53a155.1,155.1,0,0,1,6.13-21.41c1.23-3.36,3.88-6.3,6.25-9.12,2.53-3,6-4.58,10-3.61a10.86,10.86,0,0,1,8.62,8.6C2048.4,2233.31,2048.49,2235,2048.7,2236.63Z" fill="#000000"/><path class="cls-3" d="M1557.44,2155.73c-.44-.77-1-2-1.8-3.13-3.83-5.81-.1-15.32,9.28-16.12a25.22,25.22,0,0,1,15.61,3.66c7,4.27,8.14,11.1,2.87,17.36a34.39,34.39,0,0,1-3.11,2.89c.12,1,.16,1.85.32,2.65,1.72,8.41-1.45,13.12-9.71,14.69-2.49.47-4.92,1.3-7.37,2a10.06,10.06,0,0,1-10.83-3.31c-2.9-3.27-3.74-7.25-1.76-11.16C1552.59,2162,1555,2159.19,1557.44,2155.73Z" fill="#000000"/><path class="cls-3" d="M2120.67,2086.21a10.41,10.41,0,0,1-10.81-10.8,18.46,18.46,0,0,1,2.32-8.12,39.33,39.33,0,0,1,23-18.21c7.76-2.31,13.81.42,17.16,7.36,3.69,7.6-1,16.13-9.5,15.69-6.67-.34-10,2.55-12.63,7.88A10.29,10.29,0,0,1,2120.67,2086.21Z" fill="#000000"/><path class="cls-3" d="M2005.7,2163.36c5.22.17,10.4.47,15.17,2.83,7,3.48,8.62,11.82,3.4,17.3a9.76,9.76,0,0,1-6.86,3.18,19.29,19.29,0,0,1-4.28-.36c-6-1.12-11.86-1.86-17.69,1.11-2.61,1.33-5.62.87-8.32-.57a10.59,10.59,0,0,1-2.42-17.42c3.45-3.32,7.8-4.83,12.41-5.52C1999.94,2163.48,2002.83,2163.53,2005.7,2163.36Z" fill="#000000"/><path class="cls-3" d="M2419.16,2146.76c.52-8,2.87-15.64,5.42-23.21a11.16,11.16,0,0,1,1.78-2.92c3.17-4.28,7.67-6,11.93-4.58,4.81,1.58,8.35,5.91,7.95,11-.71,9.06-1.82,18.11-6.57,26.2a10.51,10.51,0,0,1-10.7,5.59,10.71,10.71,0,0,1-9.24-7.8A30.81,30.81,0,0,1,2419.16,2146.76Z" fill="#000000"/><path class="cls-3" d="M2131.94,2043c-9.24-.21-14.23-9.13-10.11-16.15a18.31,18.31,0,0,1,7.46-6.9c6.87-3.61,14.2-4.16,21.69-2.94,4.7.77,7.62,3.91,8.76,8.4,1.08,4.3-.69,7.81-4,10.63a9.54,9.54,0,0,1-7.17,2.28,17,17,0,0,0-12.13,3.08C2135,2042.5,2132.8,2042.71,2131.94,2043Z" fill="#000000"/><path class="cls-3" d="M2170.81,2085.66c-3.88,5.3-7.52,10.7-10.08,16.86-2,4.89-6.19,6.81-11.13,6.24a10.26,10.26,0,0,1-9-8.06,13.09,13.09,0,0,1,.15-5.87,42.47,42.47,0,0,1,9.33-17.27c7-8.13,16.36-6.1,19.75,4.16a32.42,32.42,0,0,1,.79,4.2Z" fill="#000000"/><path class="cls-3" d="M1565.2,2208.94c-7.67-.07-12.66-5.53-12.06-11.9a15.38,15.38,0,0,1,5.74-11.08,22.72,22.72,0,0,1,10.94-4.52,11.25,11.25,0,0,1,11.73,6.8,10.83,10.83,0,0,1-3.29,12.37,89.49,89.49,0,0,1-8,6.26A23.43,23.43,0,0,1,1565.2,2208.94Z" fill="#000000"/><path class="cls-6" d="M622.23,2768.27c.49-27,2.49-51.57,9.93-75.42,3.53-11.32,8.2-22.08,15.14-31.75,7.28-10.14,16.56-17.46,29.15-19.89,14.32-2.76,26.76.8,37.16,11.07a73.5,73.5,0,0,1,13.1,18.08c7.9,14.85,12.56,30.82,16.16,47.13,1.42,6.45,2.55,13,3.78,19.45a8.47,8.47,0,0,1,.38,3.3c-1.81,7.67-1.53,15.54-.74,23.13.68,6.61.19,13,0,19.48-.37,16.86-3.75,33.08-8.65,49.06a254.7,254.7,0,0,1-23.87,55.25c-3.8,6.46-7.89,12.77-13.65,17.65a69.79,69.79,0,0,1-11.94,8.36c-7.82,4.2-15.48,3.26-22.59-2.12a54.83,54.83,0,0,1-12.23-13.24c-8-11.77-13.28-24.79-17.46-38.28a296.09,296.09,0,0,1-12.56-70.23C622.91,2781.55,622.53,2773.81,622.23,2768.27Z" fill="#000000"/><path class="cls-7" d="M1375.57,2420.19l-3,2.66-.81-.59a5.45,5.45,0,0,1,.82-1.55C1373.34,2420,1374,2418.8,1375.57,2420.19Z" fill="#000000"/><path class="cls-7" d="M2390.27,2117l-3.08,3.72Z" fill="#000000"/><path d="M1459.63,1004.46a82.23,82.23,0,0,0-11.06-5.45c-1.78-.72-2.56,2.18-.79,2.89a76.5,76.5,0,0,1,10.33,5.15,1.5,1.5,0,0,0,1.52-2.59Z" fill="#000000"/><path class="cls-8" d="M1615.59,1070.44a776.91,776.91,0,0,1,24.73,150.27c17.15,255.17-88,470-234.78,479.9s-279.74-189-296.88-444.18c-12.83-191,42.83-359.4,133.2-436.17l45.64,51,8.15,5.49c-43.7,66.14-68.28,208.88-58.45,372.36,13.39,222.69,85.56,399.52,161.2,395s126.1-188.75,112.72-411.44c-5-83.7-18.37-160.92-37.08-224.47Z" fill="#000000"/></g></g></svg>