<?xml version="1.0" standalone="no"?>
<!DOCTYPE svg PUBLIC "-//W3C//DTD SVG 20010904//EN"
 "http://www.w3.org/TR/2001/REC-SVG-20010904/DTD/svg10.dtd">
<svg version="1.0" xmlns="http://www.w3.org/2000/svg"
 width="512.000000pt" height="512.000000pt" viewBox="0 0 512.000000 512.000000"
 preserveAspectRatio="xMidYMid meet">
<metadata>
Created by potrace 1.14, written by Peter Selinger 2001-2017
</metadata>
<g transform="translate(0.000000,512.000000) scale(0.100000,-0.100000)"
fill="#000000" stroke="none">
<path d="M4605 4968 c-33 -29 -109 -97 -170 -153 -60 -55 -146 -132 -190 -170
-44 -38 -129 -115 -190 -170 -60 -55 -148 -134 -195 -175 -47 -41 -135 -120
-196 -175 -150 -136 -336 -302 -458 -409 -56 -49 -148 -132 -206 -185 -58 -53
-137 -123 -175 -156 -38 -33 -119 -105 -180 -161 -262 -239 -395 -350 -395
-330 0 7 33 82 76 175 24 51 44 94 44 96 0 1 48 101 106 221 58 121 123 255
144 299 21 44 64 134 95 200 192 402 201 423 209 472 17 98 -45 219 -141 275
-58 34 -164 81 -169 75 -3 -3 -79 -172 -174 -387 -101 -231 -337 -751 -573
-1265 -63 -137 -126 -275 -140 -305 -21 -49 -156 -340 -254 -550 -20 -41 -43
-93 -53 -115 -10 -22 -64 -137 -120 -255 -56 -118 -114 -242 -130 -275 -165
-354 -231 -491 -480 -998 l-72 -148 4 -83 c5 -96 27 -147 91 -214 43 -44 124
-92 154 -92 13 1 29 24 53 78 19 42 62 135 96 207 34 72 82 173 107 225 24 52
106 223 182 380 137 284 170 354 240 505 121 261 166 359 242 530 46 104 88
194 93 199 10 10 10 9 66 -134 94 -245 243 -508 388 -689 28 -35 60 -76 70
-90 39 -53 163 -174 246 -240 162 -129 243 -177 395 -231 79 -29 106 -33 221
-38 118 -4 138 -2 200 18 38 13 94 40 125 61 60 40 112 95 104 109 -3 4 -26
11 -52 15 -108 16 -314 96 -428 168 -301 187 -585 503 -819 911 -63 110 -126
231 -126 244 0 8 100 101 245 227 38 33 120 105 181 160 61 55 201 179 310
275 109 96 245 218 303 270 58 53 137 122 176 155 38 33 120 105 181 160 61
55 183 163 270 241 87 77 222 197 298 265 76 68 178 158 226 199 372 321 400
357 400 509 0 62 -6 97 -19 126 -23 50 -139 189 -160 193 -9 1 -43 -21 -76
-50z"/>
<path d="M1833 1295 c-77 -17 -144 -65 -195 -141 -64 -95 -72 -210 -23 -321
23 -51 107 -143 131 -143 7 0 14 -5 16 -10 5 -17 146 -41 197 -34 140 19 259
133 281 269 39 244 -165 435 -407 380z m-58 -85 c3 -5 1 -10 -4 -10 -6 0 -11
5 -11 10 0 6 2 10 4 10 3 0 8 -4 11 -10z m-148 -352 c-3 -8 -6 -5 -6 6 -1 11
2 17 5 13 3 -3 4 -12 1 -19z m48 -68 c3 -5 1 -10 -4 -10 -6 0 -11 5 -11 10 0
6 2 10 4 10 3 0 8 -4 11 -10z"/>
</g>
</svg>
